<svg width="24" height="24" viewBox="0 0 24 24" fill="none" xmlns="http://www.w3.org/2000/svg">
<path fill-rule="evenodd" clip-rule="evenodd" d="M12 0.12616C5.37 0.12616 0 5.49616 0 12.1262C0 17.4362 3.435 21.9212 8.205 23.5112C8.805 23.6162 9.03 23.2562 9.03 22.9412C9.03 22.6562 9.015 21.7112 9.015 20.7062C6 21.2612 5.22 19.9712 4.98 19.2962C4.845 18.9512 4.26 17.8862 3.75 17.6012C3.33 17.3762 2.73 16.8212 3.735 16.8062C4.68 16.7912 5.355 17.6762 5.58 18.0362C6.66 19.8512 8.385 19.3412 9.075 19.0262C9.18 18.2462 9.495 17.7212 9.84 17.4212C7.17 17.1212 4.38 16.0862 4.38 11.4962C4.38 10.1912 4.845 9.11116 5.61 8.27116C5.49 7.97116 5.07 6.74116 5.73 5.09116C5.73 5.09116 6.735 4.77616 9.03 6.32116C9.99 6.05116 11.01 5.91616 12.03 5.91616C13.05 5.91616 14.07 6.05116 15.03 6.32116C17.325 4.76116 18.33 5.09116 18.33 5.09116C18.99 6.74116 18.57 7.97116 18.45 8.27116C19.215 9.11116 19.68 10.1762 19.68 11.4962C19.68 16.1012 16.875 17.1212 14.205 17.4212C14.64 17.7962 15.015 18.5162 15.015 19.6412C15.015 21.2462 15 22.5362 15 22.9412C15 23.2562 15.225 23.6312 15.825 23.5112C18.2072 22.7069 20.2772 21.1758 21.7437 19.1335C23.2101 17.0912 23.9993 14.6404 24 12.1262C24 5.49616 18.63 0.12616 12 0.12616Z" fill="#404040"/>
</svg>
