<svg width="24" height="27" viewBox="0 0 24 27" fill="none" xmlns="http://www.w3.org/2000/svg">
<path d="M4.91309 19.8557C4.91309 20.5412 5.47266 21.1008 6.16113 21.1008H7.58789V24.6281C7.58789 25.5217 8.30566 26.2512 9.1875 26.2512C10.0723 26.2512 10.7871 25.5246 10.7871 24.6281V21.0978H13.2773V24.6252C13.2773 25.5187 13.9951 26.2482 14.877 26.2482C15.7617 26.2482 16.4766 25.5217 16.4766 24.6252V21.0978H17.9033C18.5918 21.0978 19.1514 20.5383 19.1514 19.8527V8.27461H4.91309V19.8557ZM15.375 2.27461L16.6904 0.370309C16.7666 0.258981 16.749 0.109567 16.6465 0.0363245C16.5439 -0.033988 16.3975 0.00116839 16.3213 0.112497L14.9561 2.09297C14.0566 1.73847 13.0547 1.54218 12.0029 1.54218C10.9512 1.54218 9.94922 1.73847 9.0498 2.09297L7.68457 0.115426C7.6084 0.00409803 7.46191 -0.0339879 7.35937 0.0392543C7.25684 0.109567 7.23926 0.256051 7.31543 0.373239L8.63086 2.27754C6.53906 3.25019 5.07422 5.09296 4.88672 7.24628H19.125C18.9316 5.09003 17.4639 3.24726 15.375 2.27461ZM8.99707 5.27754C8.8412 5.27754 8.68883 5.23131 8.55923 5.14472C8.42963 5.05812 8.32862 4.93504 8.26897 4.79104C8.20932 4.64703 8.19372 4.48857 8.22413 4.3357C8.25454 4.18283 8.32959 4.0424 8.43981 3.93219C8.55002 3.82197 8.69045 3.74692 8.84332 3.71651C8.9962 3.6861 9.15465 3.7017 9.29866 3.76135C9.44266 3.821 9.56574 3.92201 9.65234 4.05161C9.73894 4.18121 9.78516 4.33358 9.78516 4.48945C9.78461 4.6983 9.70141 4.89843 9.55373 5.04611C9.40605 5.19379 9.20592 5.27699 8.99707 5.27754ZM15.1025 5.27754C14.9467 5.27754 14.7943 5.23131 14.6647 5.14472C14.5351 5.05812 14.4341 4.93504 14.3744 4.79104C14.3148 4.64703 14.2992 4.48857 14.3296 4.3357C14.36 4.18283 14.4351 4.0424 14.5453 3.93219C14.6555 3.82197 14.7959 3.74692 14.9488 3.71651C15.1017 3.6861 15.2601 3.7017 15.4041 3.76135C15.5481 3.821 15.6712 3.92201 15.7578 4.05161C15.8444 4.18121 15.8906 4.33358 15.8906 4.48945C15.8901 4.6983 15.8069 4.89843 15.6592 5.04611C15.5115 5.19379 15.3114 5.27699 15.1025 5.27754ZM21.6475 8.22773C20.7627 8.22773 20.0478 8.95429 20.0478 9.85078V16.1906C20.0478 17.0842 20.7656 17.8137 21.6475 17.8137C22.5322 17.8137 23.2471 17.0871 23.2471 16.1906V9.84785C23.25 8.95136 22.5352 8.22773 21.6475 8.22773ZM2.35254 8.22773C1.46777 8.22773 0.75293 8.95429 0.75293 9.85078V16.1906C0.75293 17.0842 1.4707 17.8137 2.35254 17.8137C3.2373 17.8137 3.95215 17.0871 3.95215 16.1906V9.84785C3.95215 8.95136 3.23437 8.22773 2.35254 8.22773Z" fill="#404040"/>
</svg>
